<svg width="29" height="29" viewBox="0 0 29 29" fill="none" xmlns="http://www.w3.org/2000/svg">
<path d="M16.7136 20.02C16.9632 20.1346 17.2443 20.1608 17.5108 20.0942C17.7772 20.0277 18.013 19.8724 18.1793 19.6539L18.6083 19.092C18.8334 18.7919 19.1253 18.5482 19.4609 18.3805C19.7964 18.2127 20.1664 18.1253 20.5416 18.1253H24.1666C24.8076 18.1253 25.4223 18.3799 25.8755 18.8332C26.3287 19.2864 26.5833 19.9011 26.5833 20.542V24.167C26.5833 24.8079 26.3287 25.4226 25.8755 25.8758C25.4223 26.329 24.8076 26.5837 24.1666 26.5837C18.3982 26.5837 12.866 24.2921 8.78705 20.2132C4.70814 16.1343 2.41663 10.6021 2.41663 4.83366C2.41663 4.19272 2.67124 3.57803 3.12445 3.12482C3.57766 2.6716 4.19235 2.41699 4.83329 2.41699H8.45829C9.09923 2.41699 9.71392 2.6716 10.1671 3.12482C10.6203 3.57803 10.875 4.19272 10.875 4.83366V8.45866C10.875 8.83383 10.7876 9.20386 10.6198 9.53942C10.452 9.87499 10.2084 10.1669 9.90829 10.392L9.34279 10.8161C9.12096 10.9855 8.96461 11.2264 8.90029 11.498C8.83597 11.7696 8.86766 12.0551 8.98996 12.306C10.6414 15.6602 13.3574 18.3728 16.7136 20.02Z" fill="#152246" stroke="#152246" stroke-width="2" stroke-linecap="round" stroke-linejoin="round"/>
</svg>
