<?xml version="1.0" encoding="UTF-8"?>
<svg id="Layer_1" xmlns="http://www.w3.org/2000/svg" xmlns:xlink="http://www.w3.org/1999/xlink" version="1.1" viewBox="0 0 279 49">
  <!-- Generator: Adobe Illustrator 29.6.1, SVG Export Plug-In . SVG Version: 2.1.1 Build 9)  -->
  <defs>
    <style>
      .st0 {
        fill: url(#linear-gradient1);
      }

      .st1 {
        fill: url(#linear-gradient);
      }

      .st2 {
        fill: #fff;
        stroke: #fff;
      }
    </style>
    <linearGradient id="linear-gradient" x1="53.9" y1="35.4" x2="6.7" y2="35.4" gradientTransform="translate(0 49.3) scale(1 -1)" gradientUnits="userSpaceOnUse">
      <stop offset="0" stop-color="#fff"/>
      <stop offset="1" stop-color="#fff" stop-opacity="0"/>
    </linearGradient>
    <linearGradient id="linear-gradient1" x1="6.9" y1="14.2" x2="54.1" y2="14.2" gradientTransform="translate(0 49.3) scale(1 -1)" gradientUnits="userSpaceOnUse">
      <stop offset="0" stop-color="#fff"/>
      <stop offset="1" stop-color="#fff" stop-opacity="0"/>
    </linearGradient>
  </defs>
  <path class="st2" d="M261.1,1.8c6.4,0,10.7,1.8,15.1,5.4l.4.3-.3.4-2,2.5-.3.4-.4-.3c-4-3.4-7.9-4.8-12.6-4.8-6.2,0-10.1,3.6-10.1,7.6h0c0,2.3.5,4,2.3,5.4,1.8,1.4,4.8,2.6,9.9,3.7h0c5.1,1,8.7,2.4,11.1,4.4,2.4,2,3.5,4.7,3.5,8h0c0,7.5-6.3,12.4-14.8,12.4-7,0-12.5-2.3-17.7-7l-.4-.3.3-.4,2.1-2.4.3-.4.4.4c2.3,2.2,4.6,3.8,7,4.8,2.4,1,5,1.5,8.2,1.5,6.3,0,10.4-3.5,10.4-8.1h0c0-2.3-.6-3.9-2.2-5.3-1.7-1.4-4.7-2.5-9.6-3.5h0c-5.2-1.1-9-2.5-11.4-4.5-2.5-2.1-3.6-4.7-3.6-8.1h0c0-6.9,6.2-12,14.4-12Z"/>
  <path class="st2" d="M216,1.6c13.4,0,22.2,10.7,22.2,22.7h0c0,12.2-8.9,23-22.3,23-13.4,0-22.2-10.7-22.2-22.7h0c0-12.2,8.9-23,22.3-23ZM215.9,5.5c-10.4,0-17.8,8.4-17.8,18.8h0c0,10.6,7.6,19.1,18,19.1,10.4,0,17.8-8.4,17.8-18.8h0c0-10.6-7.6-19.1-18-19.1Z"/>
  <path class="st2" d="M123.1,1.6c7.8,0,12.6,2.9,17.1,7l.4.3-.4.4-2.3,2.3-.3.4-.4-.3c-3.7-3.6-7.9-6.2-14.2-6.2-10.1,0-17.7,8.2-17.7,18.8h0c0,10.7,7.8,19.1,17.8,19.1,6.1,0,10.2-2.3,14.5-6.6l.3-.3.4.3,2.2,2.1.4.4-.4.4c-4.7,4.5-9.7,7.7-17.5,7.7-12.7,0-22-10.1-22-22.7h0c0-12.6,9.3-23,22.1-23Z"/>
  <rect class="st2" x="64.7" y="2.4" width="28.8" height="4.1"/>
  <rect class="st2" x="152" y="22.1" width="28.8" height="4.1"/>
  <rect class="st2" x="179.8" y="2.4" width="4.1" height="44.2"/>
  <rect class="st2" x="64.7" y="22.1" width="25.7" height="4.1"/>
  <rect class="st2" x="64.7" y="42.5" width="29.1" height="4.1"/>
  <path class="st1" d="M6.7,10.6c0-6.4,3.7-9.5,13.3-9.5h17c9.2,0,17,9.1,17,19.2v6.1l-7.3-5.2h-26.6c-9.6,0-13.3-4.3-13.3-10.7Z"/>
  <path class="st0" d="M54.1,38.3c0,6.5-3.7,9.6-13.3,9.6h-17c-9.2,0-17-9.2-17-19.4v-6.2l7.3,5.2h26.6c9.6,0,13.3,4.3,13.3,10.8Z"/>
</svg>